<svg width="64" height="64" viewBox="0 0 64 64" xmlns="http://www.w3.org/2000/svg">
  <!-- School-Outline: Neomorphic Plump School (Social) -->
  <path d="M32,4 L24,12 L12,12 Q8,12 8,16 L8,52 Q8,56 12,56 L52,56 Q56,56 56,52 L56,16 Q56,12 52,12 L40,12 L32,4 Z"
        fill="none" stroke="#A78BFA" stroke-width="2" stroke-linecap="round" stroke-linejoin="round" />
  <path d="M28,32 L36,32 M32,28 L32,36" fill="none" stroke="#A78BFA" stroke-width="2" stroke-linecap="round" />
  <rect x="16" y="24" width="8" height="8" rx="2" fill="none" stroke="#A78BFA" stroke-width="1.5" opacity="0.8" />
  <rect x="40" y="24" width="8" height="8" rx="2" fill="none" stroke="#A78BFA" stroke-width="1.5" opacity="0.8" />
  <path d="M26,56 L26,44 Q26,40 32,40 Q38,40 38,44 L38,56" fill="none" stroke="#A78BFA" stroke-width="2" stroke-linecap="round" />
</svg>
